HIERARCHY
ROOT Hips
{
	OFFSET -3.958830 18.904000 13.208200
	CHANNELS 6 Xposition Yposition Zposition Zrotation Yrotation Xrotation 
	JOINT LHipJoint
	{
		OFFSET 0.000000 0.000000 0.000000
		CHANNELS 3 Zrotation Yrotation Xrotation
		JOINT LeftUpLeg
		{
			OFFSET 1.800000 -1.400000 0.085000
			CHANNELS 3 Zrotation Yrotation Xrotation
			JOINT LeftLeg
			{
				OFFSET 2.215000 -6.000000 0.000000
				CHANNELS 3 Zrotation Yrotation Xrotation
				JOINT LeftFoot
				{
					OFFSET 2.500000 -6.900000 0.000000
					CHANNELS 3 Zrotation Yrotation Xrotation
					JOINT LeftToeBase
					{
						OFFSET 0.200000 -0.500000 1.950000
						CHANNELS 3 Zrotation Yrotation Xrotation
						End Site
						{
							OFFSET 0.000000 0.000000 0.000000
						}
					}
				}
			}
		}
	}
	JOINT RHipJoint
	{
		OFFSET 0.000000 0.000000 0.000000
		CHANNELS 3 Zrotation Yrotation Xrotation
		JOINT RightUpLeg
		{
			OFFSET -1.800000 -1.400000 0.085000
			CHANNELS 3 Zrotation Yrotation Xrotation
			JOINT RightLeg
			{
				OFFSET -2.215000 -6.000000 0.000000
				CHANNELS 3 Zrotation Yrotation Xrotation
				JOINT RightFoot
				{
					OFFSET -2.500000 -6.900000 0.000000
					CHANNELS 3 Zrotation Yrotation Xrotation
					JOINT RightToeBase
					{
						OFFSET -0.200000 -0.500000 1.950000
						CHANNELS 3 Zrotation Yrotation Xrotation
						End Site
						{
							OFFSET 0.000000 0.000000 0.000000
						}
					}
				}
			}
		}
	}
	JOINT LowerBack
	{
		OFFSET 0.000000 0.000000 0.000000
		CHANNELS 3 Zrotation Yrotation Xrotation
		JOINT Spine
		{
			OFFSET -0.087000 1.940000 -0.288900
			CHANNELS 3 Zrotation Yrotation Xrotation
			JOINT Spine1
			{
				OFFSET 0.000000 1.950000 0.060000
				CHANNELS 3 Zrotation Yrotation Xrotation
				JOINT Neck
				{
					OFFSET 0.000000 0.000000 0.000000
					CHANNELS 3 Zrotation Yrotation Xrotation
					JOINT Neck1
					{
						OFFSET 0.000000 1.600000 0.340000
						CHANNELS 3 Zrotation Yrotation Xrotation
						JOINT Head
						{
							OFFSET 0.000000 1.667000 -0.240000
							CHANNELS 3 Zrotation Yrotation Xrotation
							End Site
							{
								OFFSET 0.000000 0.000000 0.000000
							}
						}
					}
				}
				JOINT LeftShoulder
				{
					OFFSET 0.000000 0.000000 0.000000
					CHANNELS 3 Zrotation Yrotation Xrotation
					JOINT LeftArm
					{
						OFFSET 2.700000 1.550000 -0.730000
						CHANNELS 3 Zrotation Yrotation Xrotation
						JOINT LeftForeArm
						{
							OFFSET 5.450000 0.000000 0.000000
							CHANNELS 3 Zrotation Yrotation Xrotation
							JOINT LeftHand
							{
								OFFSET 3.450000 0.000000 0.000000
								CHANNELS 3 Zrotation Yrotation Xrotation
								JOINT LeftHandIndex1
								{
									OFFSET 0.750000 0.000000 0.000000
									CHANNELS 3 Zrotation Yrotation Xrotation
									End Site
									{
										OFFSET 0.000000 0.000000 0.000000
									}
								}
							}
						}
					}
				}
				JOINT RightShoulder
				{
					OFFSET 0.000000 0.000000 0.000000
					CHANNELS 3 Zrotation Yrotation Xrotation
					JOINT RightArm
					{
						OFFSET -2.700000 1.550000 -0.730000
						CHANNELS 3 Zrotation Yrotation Xrotation
						JOINT RightForeArm
						{
							OFFSET -5.450000 0.000000 0.000000
							CHANNELS 3 Zrotation Yrotation Xrotation
							JOINT RightHand
							{
								OFFSET -3.450000 0.000000 0.000000
								CHANNELS 3 Zrotation Yrotation Xrotation
								JOINT RightHandIndex1
								{
									OFFSET -0.750000 0.000000 0.000000
									CHANNELS 3 Zrotation Yrotation Xrotation
									End Site
									{
										OFFSET 0.000000 0.000000 0.000000
									}
								}
							}
						}
					}
				}
			}
		}
	}
}
MOTION
Frames: 4
Frame Time: 0.016667
-1.908400 17.224530 -0.911520 4.188625 3.959483 -24.589555 -15.057530 13.297900 2.356663 21.710848 0.979281 -7.866848 -2.399942 16.244817 51.981407 1.260192 10.350401 0.890084 0.399020 0.339800 0.190700 18.367992 -11.416704 2.466339 -13.263041 -1.836493 16.627274 3.959149 -7.896907 19.117267 -1.043900 -6.209820 2.267152 0.144970 -0.222540 0.004160 -3.900529 -1.252159 -6.800405 -6.473509 0.753510 -5.768270 -22.066853 8.908795 10.906500 2.654755 -11.161264 -18.359577 -21.905648 -1.134766 28.687492 5.379620 -8.409900 -21.264820 0.702150 -15.846271 8.917773 -31.397290 -3.122203 -0.794037 7.947537 -14.179915 -0.402999 -3.334839 3.010133 0.350560 -0.348090 0.216450 0.097720 -4.107831 30.958649 15.287305 61.316550 19.084359 2.719016 86.270197 59.809981 40.133779 2.825197 -1.638878 0.082260 0.107780 -0.128740 -0.008150 
-1.958950 17.237640 -0.976920 5.803486 2.214334 -23.025980 -15.041126 12.649092 2.948251 22.523261 0.629219 -13.767144 -4.413700 20.372142 59.218032 1.626707 11.983247 0.373189 0.406290 0.361520 0.217510 18.441128 -11.353982 2.305190 -15.707374 -1.169609 14.754887 5.749226 -8.240380 17.811916 -0.997406 -6.152054 2.272357 0.160960 -0.238940 0.006420 -4.015117 -0.574841 -7.157904 -7.344542 1.846172 -3.852489 -23.608331 9.744416 9.108584 2.786917 -9.972843 -17.580383 -18.597206 -2.552002 27.490318 4.719910 -8.231640 -22.303740 0.823093 -14.262960 8.038901 -25.897520 -2.430003 -1.089356 8.176187 -14.671822 -0.312261 -3.382549 2.957259 0.344260 -0.337360 0.224380 0.081060 -4.929807 28.804249 14.535053 59.233709 18.767621 3.088672 93.228787 58.950881 44.458695 2.823480 -1.626532 0.083350 0.105920 -0.134550 -0.022600 
-2.001120 17.261910 -0.972950 6.830506 0.633338 -20.674525 -15.081372 11.978762 3.659240 24.121964 0.710911 -19.372874 -6.558141 24.955610 64.743668 1.978041 13.491389 -0.052624 0.368730 0.292880 0.253610 18.469969 -11.197355 2.203634 -16.631090 -0.644074 12.816224 6.733314 -8.136018 15.937636 -0.949497 -5.953991 2.337079 0.114320 -0.254580 0.028200 -3.999839 0.113968 -7.590158 -10.117689 3.445775 -2.908240 -22.858216 10.109644 5.444264 2.454290 -7.376477 -16.742315 -13.472193 -3.517076 27.222769 3.897920 -6.678550 -22.487990 -2.751687 -12.161047 6.317203 -16.008105 -1.529894 -1.012251 6.346343 -13.244231 -0.013291 -3.481647 2.841455 0.383980 -0.319330 0.237750 0.048770 -1.175353 24.387359 14.224831 53.719812 12.881251 2.503934 101.047291 54.894335 48.245288 2.693028 -1.731469 0.060910 0.079740 -0.123740 -0.072310 
-2.044090 17.317960 -0.999120 7.869190 -0.228808 -18.970078 -15.173876 11.441642 4.378234 25.742807 0.902989 -24.240917 -9.145629 29.302884 68.118457 2.264002 14.661565 -0.348357 0.332790 0.252740 0.239410 18.466351 -10.878983 2.052707 -17.255308 -0.274396 11.262718 7.426503 -7.966638 14.540250 -0.885884 -5.780592 2.399103 0.094290 -0.237080 0.032430 -3.890692 0.251671 -7.918505 -11.850812 3.938841 -1.614961 -21.806687 9.361094 2.464907 2.248264 -7.239316 -15.857954 -13.191871 -3.327060 25.989807 2.757390 -5.707570 -22.115180 -6.366501 -10.051257 4.965368 -9.481518 0.464474 -1.038669 4.364413 -14.606227 0.255354 -3.492068 2.834361 0.380640 -0.292230 0.221400 0.036930 2.773112 21.281948 13.625173 46.310662 8.596430 1.964040 101.870901 53.159954 48.727379 2.620009 -1.783317 0.043450 0.076610 -0.103940 -0.084780 
